<?xml version="1.0" standalone="no"?>
<!DOCTYPE svg PUBLIC "-//W3C//DTD SVG 20010904//EN"
 "http://www.w3.org/TR/2001/REC-SVG-20010904/DTD/svg10.dtd">
<svg version="1.0" xmlns="http://www.w3.org/2000/svg"
 width="700.000000pt" height="700.000000pt" viewBox="0 0 700.000000 700.000000"
 preserveAspectRatio="xMidYMid meet">
<metadata>
Created by potrace 1.14, written by Peter Selinger 2001-2017
</metadata>
<g transform="translate(0.000000,700.000000) scale(0.100000,-0.100000)"
fill="#000000" stroke="none">
<path d="M1245 6993 c-140 -17 -345 -77 -468 -139 -393 -198 -658 -548 -753
-994 -22 -102 -25 -402 -6 -490 7 -30 14 -64 16 -75 40 -210 173 -463 338
-644 206 -225 510 -388 818 -436 87 -14 335 -13 426 2 351 56 670 244 888 523
43 55 131 188 134 203 1 4 13 28 26 55 36 71 81 207 107 318 33 146 35 381 5
549 -36 196 -138 421 -272 595 -200 260 -522 458 -839 514 -16 3 -41 8 -55 12
-29 6 -320 12 -365 7z"/>
<path d="M5468 6995 c-2 -2 -24 -6 -48 -9 -207 -25 -428 -110 -620 -238 -93
-61 -283 -238 -346 -322 -16 -21 -34 -44 -39 -50 -14 -15 -86 -124 -104 -156
-112 -207 -156 -336 -262 -770 -27 -113 -51 -212 -53 -220 -71 -285 -183 -623
-274 -825 -244 -541 -513 -826 -1007 -1070 -313 -154 -602 -250 -1145 -380
-252 -60 -422 -108 -540 -152 -101 -37 -310 -142 -310 -155 0 -4 -5 -8 -11 -8
-19 0 -161 -111 -247 -194 -46 -44 -111 -115 -143 -156 -33 -41 -64 -80 -69
-87 -6 -7 -10 -14 -10 -17 0 -3 -11 -22 -25 -42 -38 -56 -109 -208 -138 -295
-50 -149 -69 -264 -72 -424 -4 -233 34 -424 122 -614 129 -280 353 -514 628
-654 115 -59 279 -116 380 -132 128 -21 380 -28 451 -11 12 2 39 7 60 10 22 4
47 9 56 12 9 3 27 7 39 9 85 17 246 83 354 146 118 69 198 132 310 244 276
275 387 484 520 985 145 545 222 790 326 1033 91 211 167 356 268 507 205 306
451 512 836 700 189 92 335 152 540 219 133 44 302 96 345 106 53 12 386 102
490 132 372 106 600 237 841 483 135 138 194 218 278 381 34 65 111 264 110
287 0 4 5 27 10 52 20 87 23 126 26 270 2 147 -11 259 -48 396 -108 398 -432
761 -820 915 -62 25 -198 65 -247 73 -19 3 -46 8 -60 12 -28 6 -346 15 -352 9z"/>
<path d="M5420 2790 c-25 -5 -58 -10 -75 -13 -60 -10 -162 -39 -240 -68 -371
-139 -675 -442 -813 -809 -92 -245 -112 -476 -68 -760 2 -14 11 -53 20 -88
131 -499 516 -881 1015 -1008 123 -32 197 -39 366 -38 153 1 230 12 378 55
138 41 325 132 411 200 219 172 341 318 449 534 119 239 165 589 113 869 -40
216 -160 466 -306 640 -56 66 -183 182 -262 238 -83 61 -264 154 -348 182 -75
24 -155 45 -191 51 -19 3 -58 9 -88 14 -66 10 -299 11 -361 1z"/>
</g>
</svg>
